@startuml
!include style.puml

skinparam {
    classFontSize 13
    classFontStyle bold
    arrowThickness 1.3
    arrowColor #444444
    classBackgroundColor #000000
    classBorderColor MODEL_COLOR
    classArrowColor MODEL_COLOR
}

title "Class Diagram of Models in TutorTrack"

class AddressBook {
  - students: UniqueStudentList
  - subjects: UniqueLessonList
}

class UniqueStudentList {
  - internalList: List<Student>
  + add(Student)
  + remove(Student)
}

class UniqueLessonList {
  - internalList: List<Lesson>
  + add(Subject)
  + remove(Subject)
}

class UniqueAssignmentList {
  - internalList: List<Assignment>
  + add(Assignment)
  + remove(Assignment)
}

class Student {
  - name: Name
  - phone: Phone
  - email: Email
  - address: Address
  - subjects: Set<Subject>
  + addSubject(Subject)
  + removeSubject(Subject)
}

class Lesson {
  - studentName: Name
  - subjects: Set<Subject>
  - date: Date
  - time: Time
}

class Name {
  - fullName: String
}
class Phone {
  - value: String
}
class Email {
  - value: String
}
class Address {
  - value: String
}
class Subject {
  - value: String
}
class Date {
  - value: LocalDate
}
class Time {
  - value: LocalTime
}
class Assignment {
  - assignmentName: Name
  - dueDate: Date
  - isComplete: boolean
}

' Composition Relationships
AddressBook "1" *-- "1" UniqueStudentList : contains
AddressBook "1" *-- "1" UniqueLessonList : contains

UniqueStudentList "1" *-- "*" Student : maintains
UniqueLessonList "1" *-- "*" Lesson : maintains

' Student Components
Student *-- "1" Name : has
Student *-- "1" Phone : has
Student *-- "1" Email : has
Student *-- "1" Address : has
Student *-- "*" Subject : has
Student *-- "1" UniqueAssignmentList : has

' Subject Association
Student "1" --> "*" Lesson : subjected with

' Lesson Components
Lesson *-- "1" Name : for student
Lesson *-- "*" Subject : teaches
Lesson *-- "1" Date : on
Lesson *-- "1" Time : at

' Assignment Components
UniqueAssignmentList *-- "*" Assignment : maintains

' Layout improvements
UniqueLessonList -[hidden]right- UniqueStudentList
Name -[hidden]down- Phone
Email -[hidden]down- Address
@enduml
